<svg id="circle" xmlns="http://www.w3.org/2000/svg" xmlns:xlink="http://www.w3.org/1999/xlink" width="352" height="389.001" viewBox="0 0 652 689.001">
  <defs>
    <linearGradient id="linear-gradient" x1="0.897" y1="0.906" x2="-0.102" y2="0.18" gradientUnits="objectBoundingBox">
      <stop offset="0" stop-color="#fe3d50"/>
      <stop offset="0.54" stop-color="#c40594"/>
      <stop offset="1" stop-color="#660db5"/>
    </linearGradient>
  </defs>
  <path id="Subtraction_2" data-name="Subtraction 2" d="M654.689,689H106V74.285A413.146,413.146,0,0,1,343,0a421.563,421.563,0,0,1,42.431,2.143,415.783,415.783,0,0,1,41.206,6.288c13.371,2.736,26.752,6.177,39.772,10.227,12.874,4,25.7,8.7,38.129,13.954a416.215,416.215,0,0,1,220.85,220.851c5.255,12.425,9.95,25.253,13.956,38.129,4.048,13.015,7.488,26.4,10.226,39.771a415.753,415.753,0,0,1,6.288,41.206,421.141,421.141,0,0,1,0,84.863,415.735,415.735,0,0,1-6.288,41.206c-2.735,13.364-6.175,26.745-10.226,39.771-4,12.873-8.7,25.7-13.956,38.129A415.175,415.175,0,0,1,654.69,689Z" transform="translate(-106)" fill="url(#linear-gradient)"/>
</svg>
